<svg width="546" height="769" viewBox="0 0 546 769" fill="none" xmlns="http://www.w3.org/2000/svg">
<path opacity="0.031638" fill-rule="evenodd" clip-rule="evenodd" d="M0 112.321C36.0347 76.535 78.7429 48.4753 125.413 29.2769C171.951 10.129 222.056 0 273 0C323.95 0 374.056 10.129 420.587 29.2769C467.251 48.4753 509.972 76.535 546 112.321L484.916 173C456.647 144.915 423.59 123.093 387.854 108.385C351.965 93.6269 312.991 85.8125 273 85.8125C233.016 85.8125 194.035 93.6269 158.153 108.385C122.41 123.093 89.3597 144.915 61.0907 173L0 112.321ZM57 341L316 341L316 598L229.662 598L229.662 426.665L57 426.665L57 341ZM402 427H488L488 341H402L402 427ZM420.587 739.723C467.257 720.518 509.972 692.465 546 656.673L484.916 596C456.647 624.079 423.596 645.901 387.854 660.609C351.965 675.373 312.991 683.181 273 683.181C233.016 683.181 194.035 675.373 158.153 660.609C122.41 645.901 89.3597 624.079 61.0907 596L0 656.673C36.0347 692.465 78.7493 720.518 125.42 739.723C171.951 758.865 222.056 769 273 769C323.95 769 374.056 758.865 420.587 739.723Z" fill="black"/>
</svg>
