<svg width="35" height="41" viewBox="0 0 35 41" fill="none" xmlns="http://www.w3.org/2000/svg">
<path fill-rule="evenodd" clip-rule="evenodd" d="M25.1418 21.6065C25.6955 21.8165 26.2365 22.052 26.7647 22.3129C32.2252 25.0432 35 29.0972 35 34.3668V38.1853C35 39.5912 33.8602 40.731 32.4543 40.731C31.0483 40.731 29.9086 39.5912 29.9086 38.1853V34.3668C29.9086 31.051 28.2348 28.7408 24.4863 26.8634C22.6343 25.9391 20.5929 25.4576 18.523 25.4569H17.1802C11.5564 25.4569 6.99743 20.8979 6.99743 15.2741V10.1827C6.99743 4.55897 11.5564 0 17.1802 0C22.8039 0 27.3629 4.55897 27.3629 10.1827V15.2741C27.3639 17.576 26.5804 19.8095 25.1418 21.6065ZM12.0888 10.1827V15.2741C12.0888 18.086 14.3683 20.3655 17.1802 20.3655C19.9921 20.3655 22.2715 18.086 22.2715 15.2741V10.1827C22.2715 7.37086 19.9921 5.09137 17.1802 5.09137C14.3683 5.09137 12.0888 7.37086 12.0888 10.1827ZM15.2709 40.731H21.6351C23.0411 40.731 24.1808 39.5912 24.1808 38.1853C24.1808 36.7794 23.0411 35.6396 21.6351 35.6396H15.2709C13.865 35.6396 12.7252 36.7794 12.7252 38.1853C12.7252 39.5912 13.865 40.731 15.2709 40.731ZM2.30778 24.1918C3.06007 24.1242 3.80353 24.3941 4.33718 24.9286L8.9767 29.5745C9.7427 30.3397 10.1731 31.378 10.1731 32.4607C10.1731 33.5434 9.7427 34.5817 8.9767 35.3469L4.33082 39.9864C3.78767 40.5311 3.02732 40.801 2.26227 40.7207C1.49721 40.6404 0.809518 40.2184 0.39137 39.5727C-0.261603 38.5402 -0.102312 37.1916 0.773223 36.3397L4.65539 32.4575L0.836865 28.639C-0.0890098 27.7612 -0.255065 26.347 0.442284 25.2787C0.872081 24.6576 1.5555 24.2594 2.30778 24.1918Z" fill="#FF3D6A"/>
</svg>
