<svg width="278" height="769" viewBox="0 0 278 769" fill="none" xmlns="http://www.w3.org/2000/svg">
<path opacity="0.031638" fill-rule="evenodd" clip-rule="evenodd" d="M-268 112.321C-231.965 76.535 -189.257 48.4753 -142.587 29.2769C-96.0495 10.129 -45.9438 0 5 0C55.9502 0 106.056 10.129 152.587 29.2769C199.251 48.4753 241.972 76.535 278 112.321L216.916 173C188.647 144.915 155.59 123.093 119.854 108.385C83.9651 93.6269 44.9906 85.8125 5 85.8125C-34.9842 85.8125 -73.9651 93.6269 -109.847 108.385C-145.59 123.093 -178.64 144.915 -206.909 173L-268 112.321ZM-211 341L48 341L48 598L-38.3376 598L-38.3376 426.665L-211 426.665L-211 341ZM134 427H220L220 341H134L134 427ZM152.587 739.723C199.257 720.518 241.972 692.465 278 656.673L216.916 596C188.647 624.079 155.596 645.901 119.854 660.609C83.9651 675.373 44.9906 683.181 5 683.181C-34.9842 683.181 -73.9651 675.373 -109.847 660.609C-145.59 645.901 -178.64 624.079 -206.909 596L-268 656.673C-231.965 692.465 -189.251 720.518 -142.58 739.723C-96.0495 758.865 -45.9438 769 5 769C55.9502 769 106.056 758.865 152.587 739.723Z" fill="black"/>
</svg>
