<svg width="418" height="406" viewBox="0 0 418 406" fill="none" xmlns="http://www.w3.org/2000/svg">
<path opacity="0.05" fill-rule="evenodd" clip-rule="evenodd" d="M0 86.3506C27.587 58.839 60.283 37.2672 96.0124 22.5077C131.64 7.78702 169.999 0 209 0C248.006 0 286.365 7.78702 321.988 22.5077C357.712 37.2672 390.418 58.839 418 86.3506L371.236 133C349.594 111.409 324.287 94.6322 296.928 83.325C269.453 71.979 239.615 65.9715 209 65.9715C178.389 65.9715 148.547 71.979 121.076 83.325C93.7131 94.6322 68.4109 111.409 46.7691 133L0 86.3506ZM44 262H242V459H175.997V327.665H44V262ZM308 328H374V262H308V328ZM321.988 567.492C357.717 552.728 390.418 531.161 418 503.645L371.236 457C349.594 478.586 324.292 495.363 296.928 506.67C269.453 518.021 239.615 524.024 209 524.024C178.389 524.024 148.547 518.021 121.076 506.67C93.7131 495.363 68.4109 478.586 46.7691 457L0 503.645C27.587 531.161 60.2879 552.728 96.0173 567.492C131.64 582.208 169.999 590 209 590C248.006 590 286.365 582.208 321.988 567.492Z" fill="#E7E8EA"/>
</svg>
