<svg xmlns="http://www.w3.org/2000/svg" width="711" height="1000"><path fill="#FFF" fill-rule="evenodd" d="M75 445h337v335H299.661V556.664H75V445zm449 112V445h112v112H524zM0 146.731C46.924 99.982 102.539 63.326 163.313 38.246 223.913 13.232 289.161 0 355.5 0c66.347 0 131.595 13.232 192.187 38.246C608.453 63.326 664.084 99.982 711 146.731L631.456 226c-36.812-36.689-79.858-65.196-126.394-84.41-46.734-19.28-97.486-29.488-149.562-29.488-52.067 0-102.828 10.208-149.554 29.488-46.544 19.214-89.582 47.721-126.394 84.41L0 146.731zm711 709.53c-46.916 46.757-102.539 83.405-163.313 108.493C487.095 989.76 421.847 1003 355.5 1003c-66.339 0-131.586-13.24-192.179-38.246C102.547 939.666 46.924 903.018 0 856.26L79.552 777c36.812 36.68 79.85 65.188 126.394 84.402 46.726 19.288 97.487 29.488 149.554 29.488 52.076 0 102.828-10.2 149.562-29.488 46.544-19.214 89.582-47.721 126.394-84.402L711 856.26z" opacity=".15"/></svg>