<svg xmlns="http://www.w3.org/2000/svg" width="16" height="20"><path fill="#D0D1D3" fill-rule="evenodd" d="M15.905 8.946l-4.715 9.899a2.033 2.033 0 0 1-2.688.967l-7.334-3.381a1.99 1.99 0 0 1-.978-2.658L6.187 1.155a2.032 2.032 0 0 1 2.69-.967l4.582 2.113a1.99 1.99 0 0 1 .978 2.658l-4.286 8.993a2.033 2.033 0 0 1-2.689.967l-1.833-.845a1.99 1.99 0 0 1-.979-2.658l3.004-6.274a1.017 1.017 0 0 1 1.344-.484.996.996 0 0 1 .49 1.329l-2.576 5.368a.995.995 0 0 0 .488 1.329 1.016 1.016 0 0 0 1.345-.484l3.432-7.179a.996.996 0 0 0-.49-1.33l-2.75-1.268a1.016 1.016 0 0 0-1.344.484l-5.14 10.801a1 1 0 0 0 .492 1.335l5.491 2.532a1.021 1.021 0 0 0 1.35-.486l4.285-8.988a1.017 1.017 0 0 1 1.345-.484.995.995 0 0 1 .49 1.329"/></svg>