<?xml version="1.0" encoding="UTF-8"?>
<svg width="22px" height="18px" viewBox="0 0 22 18" version="1.1" xmlns="http://www.w3.org/2000/svg" xmlns:xlink="http://www.w3.org/1999/xlink">
    <!-- Generator: Sketch 63.1 (92452) - https://sketch.com -->
    <title>close</title>
    <desc>Created with Sketch.</desc>
    <g id="База" stroke="none" stroke-width="1" fill="none" fill-rule="evenodd">
        <g id="пиктограммы" transform="translate(-1508.000000, -1621.000000)" fill="#FFFFFF" fill-rule="nonzero">
            <path d="M1510.65015,1621.33052 C1511.05166,1620.92975 1511.70257,1620.92975 1512.1041,1621.33052 L1512.1041,1621.33052 L1527.36945,1636.56773 C1527.77097,1636.96831 1527.77097,1637.61818 1527.36945,1638.01877 C1526.96794,1638.41954 1526.31703,1638.41954 1525.9155,1638.01877 L1525.9155,1638.01877 L1523.7912,1635.89846 C1522.32087,1636.51621 1520.70532,1636.85754 1519.00993,1636.85754 C1514.367,1636.85754 1510.3235,1634.2975 1508.21814,1630.51483 C1507.92729,1629.99209 1507.92729,1629.3572 1508.21814,1628.83446 C1509.20634,1627.05878 1510.62173,1625.55259 1512.32576,1624.4542 L1512.32576,1624.4542 L1510.65015,1622.78173 C1510.24863,1622.38098 1510.24863,1621.73129 1510.65015,1621.33052 Z M1514.70064,1626.82759 C1514.16268,1627.63978 1513.84941,1628.61392 1513.84941,1629.66131 C1513.84941,1632.49917 1516.14987,1634.79935 1518.98773,1634.79935 C1520.0349,1634.79935 1521.00901,1634.48606 1521.82118,1633.94809 L1520.31662,1632.44375 C1519.91423,1632.63644 1519.4635,1632.74431 1518.98763,1632.74431 C1517.28481,1632.74431 1515.90455,1631.36401 1515.90455,1629.66131 C1515.90455,1629.18542 1516.01242,1628.73451 1516.2051,1628.33209 L1514.70064,1626.82759 Z M1518.98965,1622.47935 C1523.6327,1622.47935 1527.67649,1625.03849 1529.78172,1628.82026 C1530.07276,1629.34285 1530.07276,1629.97756 1529.78172,1630.50016 C1529.08227,1631.75673 1528.16873,1632.87834 1527.09027,1633.81582 L1527.09027,1633.81582 L1524.01465,1630.74693 C1524.09021,1630.39658 1524.13014,1630.03302 1524.13014,1629.66018 C1524.13014,1626.8273 1521.82861,1624.5309 1518.98965,1624.5309 C1518.61597,1624.5309 1518.25181,1624.57074 1517.9007,1624.6463 L1517.9007,1624.6463 L1516.07529,1622.82488 C1517.00968,1622.59905 1517.98574,1622.47935 1518.98965,1622.47935 Z" id="close"></path>
        </g>
    </g>
</svg>