<?xml version="1.0" encoding="UTF-8"?>
<svg width="77px" height="34px" viewBox="0 0 77 34" version="1.1" xmlns="http://www.w3.org/2000/svg" xmlns:xlink="http://www.w3.org/1999/xlink">
    <!-- Generator: Sketch 63.1 (92452) - https://sketch.com -->
    <title>Shape</title>
    <desc>Created with Sketch.</desc>
    <g id="1920" stroke="none" stroke-width="1" fill="none" fill-rule="evenodd">
        <g id="1-корзина-пустая-шелл" transform="translate(-1402.000000, -431.000000)" fill="#000000" fill-rule="nonzero">
            <g id="Group-3" transform="translate(1396.000000, 431.000000)">
                <path d="M76.975,7.63923048 C76.975,7.33923048 76.875,7.03923048 76.675,6.73923048 L74.475,4.33923048 C74.075,3.93923048 73.575,3.83923048 73.075,4.03923048 L51.775,14.3392305 L51.775,13.3392305 C51.775,10.7392305 49.575,8.53923048 46.975,8.53923048 L36.775,8.53923048 L36.775,4.03923048 L42.975,4.03923048 C43.675,4.03923048 44.175,3.53923048 44.175,2.83923048 C44.175,2.13923048 43.675,1.63923048 42.975,1.63923048 L28.175,1.63923048 C27.475,1.63923048 26.975,2.13923048 26.975,2.83923048 C26.975,3.53923048 27.475,4.03923048 28.175,4.03923048 L34.375,4.03923048 L34.375,8.53923048 L25.875,8.53923048 C25.875,8.53923048 25.775,8.43923048 25.775,8.43923048 L13.875,0.239230485 C13.575,0.0392304845 13.175,-0.0607695155 12.875,0.0392304845 C12.575,0.139230485 12.275,0.339230485 12.075,0.739230485 L6.075,14.2392305 C5.975,14.5392305 5.975,14.9392305 6.075,15.2392305 C6.275,15.5392305 6.475,15.8392305 6.875,15.8392305 L19.475,19.1392305 L19.475,28.8392305 C19.475,31.4392305 21.675,33.6392305 24.275,33.6392305 L47.075,33.6392305 C48.175,33.6392305 49.275,33.2392305 50.175,32.4392305 C50.175,32.4392305 50.275,32.4392305 50.275,32.3392305 L76.575,8.33923048 C76.775,8.23923048 76.975,7.93923048 76.975,7.63923048 Z M8.775,13.9392305 L13.675,3.03923048 L22.175,8.93923048 C20.475,9.73923048 19.375,11.3392305 19.375,13.3392305 L19.375,16.7392305 L8.775,13.9392305 Z M48.675,30.6392305 C48.675,30.6392305 48.675,30.6392305 48.675,30.6392305 C48.175,31.0392305 47.575,31.3392305 46.975,31.3392305 L24.175,31.3392305 C22.875,31.3392305 21.775,30.2392305 21.775,28.9392305 L21.775,13.2392305 C21.775,11.9392305 22.875,10.8392305 24.175,10.8392305 L46.975,10.8392305 C48.275,10.8392305 49.375,11.9392305 49.375,13.2392305 L49.375,16.2392305 C49.375,16.6392305 49.575,17.0392305 49.975,17.2392305 C50.375,17.4392305 50.775,17.4392305 51.175,17.3392305 L73.275,6.63923048 L74.075,7.53923048 L48.675,30.6392305 Z M81.475,21.7392305 C81.475,21.7392305 81.475,21.7392305 81.475,21.7392305 L76.675,13.0392305 C76.475,12.6392305 76.075,12.4392305 75.575,12.4392305 C75.075,12.4392305 74.775,12.6392305 74.475,13.0392305 L69.675,21.7392305 C69.675,21.7392305 69.675,21.7392305 69.675,21.7392305 C69.175,22.6392305 68.875,23.7392305 68.875,24.8392305 C68.875,28.4392305 71.875,31.4392305 75.475,31.4392305 C79.075,31.4392305 82.075,28.4392305 82.075,24.8392305 C82.175,23.7392305 81.975,22.6392305 81.475,21.7392305 Z M75.575,29.0392305 C73.275,29.0392305 71.375,27.1392305 71.375,24.8392305 C71.375,24.1392305 71.575,23.4392305 71.875,22.8392305 C71.875,22.8392305 71.875,22.8392305 71.875,22.8392305 C71.875,22.8392305 71.875,22.8392305 71.875,22.8392305 L75.575,16.0392305 L79.275,22.7392305 L79.275,22.7392305 C79.275,22.7392305 79.275,22.7392305 79.275,22.7392305 C79.575,23.3392305 79.775,24.0392305 79.775,24.7392305 C79.775,27.1392305 77.975,29.0392305 75.575,29.0392305 Z" id="Shape"></path>
            </g>
        </g>
    </g>
</svg>