<svg xmlns="http://www.w3.org/2000/svg" width="28" height="28"><path fill="#FFF" d="M24.285 19.855A4.904 4.904 0 0 1 28 24.612V26.5a1.5 1.5 0 0 1-1.5 1.5h-25A1.5 1.5 0 0 1 0 26.5v-1.888a4.906 4.906 0 0 1 3.715-4.758l5.364-1.34-.007-.685c-.006-.614-.262-1.226-.727-1.735-1.53-1.678-2.277-3.295-2.52-5.176-.09-.707-.108-1.244-.108-2.458A8.417 8.417 0 0 1 14.027 0c4.604.085 8.256 3.82 8.256 8.461 0 1.214-.017 1.75-.108 2.458-.243 1.88-.99 3.498-2.52 5.176-.465.51-.72 1.121-.727 1.735l-.007.684 5.364 1.34zM25 24.612c0-.873-.595-1.635-1.442-1.847l-5.643-1.41a2.634 2.634 0 0 1-1.997-2.585l.01-.97c.014-1.374.562-2.688 1.51-3.727 1.115-1.222 1.597-2.267 1.761-3.538.07-.537.084-.989.084-2.074 0-3.008-2.345-5.407-5.255-5.461-2.966.054-5.311 2.453-5.311 5.46 0 1.085.014 1.537.084 2.074.164 1.271.646 2.316 1.76 3.538.949 1.04 1.497 2.352 1.51 3.726l.01.97a2.635 2.635 0 0 1-1.996 2.586l-5.642 1.41A1.906 1.906 0 0 0 3 24.612V25h22v-.388z"/></svg>