<svg xmlns="http://www.w3.org/2000/svg" width="208" height="78"><g fill="none" fill-rule="evenodd"><path fill="#FFF" d="M56 66.962c-3.696 3.517-8.076 6.274-12.863 8.161A41.308 41.308 0 0 1 28 78a41.308 41.308 0 0 1-15.137-2.877C8.076 73.236 3.696 70.48 0 66.963L6.265 61a30.85 30.85 0 0 0 9.956 6.349A32.129 32.129 0 0 0 28 69.567c4.101 0 8.1-.767 11.78-2.218A30.844 30.844 0 0 0 49.734 61L56 66.962zM6 35h26v26h-8.667V43.666H6V35zm34 9v-9h9v9h-9zm159.32-25.751v9.503H208v-1.95h-6.232v-2.069h5.546v-1.95h-5.546v-1.584H208v-1.95h-8.68zm-4.63 9.503h2.449v-9.503h-2.45v9.503zm-9.207-4.019h2.504c.408-.004.744.02 1.011.068.268.05.467.146.597.29.13.144.195.358.195.637.002.29-.054.513-.17.667-.115.157-.296.265-.543.323-.25.06-.572.086-.97.083h-2.624v-2.068zm0-5.484h-2.449v9.503h5.949c.697-.003 1.287-.123 1.772-.36a2.498 2.498 0 0 0 1.104-1.017c.253-.44.379-.969.38-1.582-.001-.617-.13-1.151-.387-1.601a2.572 2.572 0 0 0-1.113-1.039c-.487-.244-1.076-.368-1.77-.37h-3.486v-3.534zm-11.776 0h-2.45v9.503h2.45v-4.019h4.697v4.019h2.45v-9.503h-2.45v3.534h-4.697v-3.534zm-11.776 0h-2.45v9.503h2.45v-4.019h4.696v4.019h2.45v-9.503h-2.45v3.534h-4.696v-3.534zm-12.948 0v9.503h8.68v-1.95h-6.23v-2.069h5.545v-1.95h-5.545v-1.584h6.23v-1.95h-8.68zm-14.859 0v9.503h2.356v-6.454l2.907 6.454h2.032l3.029-6.348v6.348h2.355v-9.503h-3.136l-3.23 6.806-3.15-6.806h-3.163zm-10.497 0v9.503h8.68v-1.95h-6.23v-2.069h5.544v-1.95h-5.545v-1.584h6.231v-1.95h-8.68zm-8.587 1.95h2.409c.364-.002.675.015.938.052.262.04.475.105.643.201a.887.887 0 0 1 .373.403c.08.175.119.396.119.666 0 .345-.08.613-.24.8-.162.19-.408.321-.739.394a5.904 5.904 0 0 1-1.256.102h-2.247v-2.618zm-2.45 7.553h2.45v-2.985h3.338c.764-.004 1.415-.137 1.95-.404a2.791 2.791 0 0 0 1.22-1.134c.28-.49.42-1.073.423-1.747-.002-.67-.143-1.246-.424-1.728a2.761 2.761 0 0 0-1.22-1.113c-.534-.26-1.185-.39-1.95-.392h-5.786v9.503zm-9.179-7.553h2.894c.39-.002.712.018.965.063.25.046.44.133.563.26.12.128.182.312.182.554 0 .268-.061.473-.187.615-.123.142-.311.24-.565.292a4.72 4.72 0 0 1-.958.075h-2.894v-1.859zm0 3.521h3.258c.39-.002.71.033.964.105.251.072.44.187.563.349.122.161.182.377.182.646 0 .214-.034.386-.103.517a.683.683 0 0 1-.316.298 1.686 1.686 0 0 1-.535.134 6.486 6.486 0 0 1-.755.032h-3.258v-2.08zm-2.449 4.032h6.81c.675-.005 1.247-.116 1.719-.339a2.446 2.446 0 0 0 1.074-.942c.244-.404.368-.881.37-1.429 0-.598-.14-1.093-.424-1.486-.282-.395-.706-.68-1.272-.857.44-.218.77-.504.994-.86.224-.353.339-.76.339-1.221 0-.792-.276-1.385-.826-1.778-.551-.395-1.375-.591-2.472-.591h-6.312v9.503zm-7.497-7.802c.654.002 1.217.124 1.685.367.469.24.83.589 1.084 1.043.25.453.379 1 .38 1.64-.001.635-.13 1.18-.38 1.634a2.585 2.585 0 0 1-1.084 1.047c-.468.245-1.031.367-1.685.37-.652-.003-1.215-.125-1.686-.37a2.598 2.598 0 0 1-1.09-1.047c-.254-.454-.384-.999-.386-1.634.002-.635.132-1.18.385-1.634.256-.456.62-.803 1.09-1.047.472-.245 1.035-.367 1.687-.369zm0-1.95c-.901.002-1.71.123-2.431.358a5.343 5.343 0 0 0-1.844 1.012c-.509.44-.9.966-1.168 1.58-.272.61-.409 1.295-.411 2.05.002.755.14 1.44.41 2.05.27.614.66 1.14 1.17 1.578.508.44 1.125.779 1.843 1.015.72.235 1.53.355 2.431.357.902-.002 1.712-.122 2.43-.357a5.322 5.322 0 0 0 1.84-1.015 4.401 4.401 0 0 0 1.166-1.577c.269-.611.403-1.296.406-2.05-.003-.756-.137-1.44-.406-2.051a4.422 4.422 0 0 0-1.167-1.58 5.318 5.318 0 0 0-1.839-1.012c-.718-.235-1.528-.356-2.43-.358zm-7.025 3.717a3.507 3.507 0 0 0-.523-1.485 4.04 4.04 0 0 0-1.155-1.178 5.68 5.68 0 0 0-1.711-.775A8.272 8.272 0 0 0 80.855 18c-.902.002-1.712.123-2.432.358s-1.335.574-1.844 1.012c-.509.44-.899.966-1.168 1.58-.272.61-.409 1.295-.411 2.05.002.755.139 1.44.41 2.05.27.614.66 1.14 1.17 1.578.508.44 1.123.779 1.843 1.015.72.235 1.53.355 2.432.357a8.15 8.15 0 0 0 2.2-.286 5.647 5.647 0 0 0 1.723-.805c.49-.349.877-.763 1.169-1.245.289-.48.468-1.017.533-1.604h-2.678a2.06 2.06 0 0 1-.453 1.07c-.247.296-.581.523-1 .68-.42.159-.918.238-1.494.24-.653-.002-1.216-.124-1.687-.369a2.601 2.601 0 0 1-1.09-1.047c-.254-.454-.384-.999-.386-1.634.002-.635.132-1.18.385-1.634.256-.456.62-.803 1.09-1.047.472-.245 1.035-.367 1.688-.369.807 0 1.456.149 1.945.447.488.297.814.736.975 1.32h2.665zM189.275 34.25v9.503H198v-1.95h-6.263v-2.069h5.574v-1.95h-5.574V36.2H198v-1.95h-8.725zm-12.5 0v9.503h2.99l4.95-6.767v6.767h2.368V34.25h-3.03l-4.911 6.701V34.25h-2.368zm-8.93 0h-2.462v9.503h2.463v-3.286l1.244-1.073 3.572 4.359h3.016l-4.856-5.812 4.33-3.691h-3.167l-4.14 3.651V34.25zm-4.166 3.468a3.506 3.506 0 0 0-.526-1.486 4.05 4.05 0 0 0-1.161-1.177 5.716 5.716 0 0 0-1.72-.775 8.351 8.351 0 0 0-2.207-.279c-.907.002-1.72.122-2.444.358a5.363 5.363 0 0 0-1.854 1.012c-.511.44-.904.966-1.175 1.58-.273.61-.41 1.295-.413 2.05.003.755.14 1.44.413 2.05a4.38 4.38 0 0 0 1.175 1.578c.512.44 1.13.779 1.854 1.015.723.235 1.537.355 2.444.357a8.235 8.235 0 0 0 2.212-.286 5.689 5.689 0 0 0 1.731-.805c.492-.35.882-.763 1.175-1.245.291-.48.471-1.017.536-1.604h-2.692a2.055 2.055 0 0 1-.455 1.07c-.249.296-.584.523-1.006.68-.422.16-.922.238-1.501.24-.656-.002-1.222-.125-1.696-.369a2.604 2.604 0 0 1-1.096-1.047c-.255-.454-.386-.999-.388-1.634.002-.635.133-1.18.388-1.634a2.587 2.587 0 0 1 1.096-1.047c.474-.245 1.04-.367 1.696-.369.811 0 1.463.149 1.954.447.492.297.819.736.981 1.32h2.679zm-21.524-3.468v9.503h8.726v-1.95h-6.264v-2.069h5.574v-1.95h-5.574V36.2h6.264v-1.95h-8.726zm-11.35 0v3.01c.002.432.065.81.192 1.135.125.327.304.604.53.835.225.229.488.417.791.56.302.145.631.25.983.317.354.065.721.099 1.102.099.526.002 1.045-.007 1.554-.025a16.33 16.33 0 0 0 1.544-.133v3.705h2.462V34.25h-2.462v4.057a20.882 20.882 0 0 1-2.435.144c-.248 0-.48-.022-.697-.07a1.746 1.746 0 0 1-.572-.222 1.09 1.09 0 0 1-.388-.393 1.17 1.17 0 0 1-.142-.584V34.25h-2.462zm-12.5 0v9.503h2.99l4.95-6.767v6.767h2.368V34.25h-3.03l-4.911 6.701V34.25h-2.368zm-9.376 0h-2.462v9.503h2.462v-4.019h4.722v4.019h2.462V34.25h-2.462v3.534h-4.722V34.25zm-14.204 0l3.855 4.686-4.045 4.817h3.085l2.435-3.05 2.286 3.05h3.166l-4.005-4.844 3.87-4.66h-3.03l-2.26 2.972-2.26-2.971h-3.097zm-9.51 0v9.503h8.725v-1.95h-6.263v-2.069h5.573v-1.95h-5.573V36.2h6.263v-1.95h-8.726zM75 34.25v1.95h3.368v7.553h2.463V36.2h3.368v-1.95H75zm80.536 21.993h-2.518a5.245 5.245 0 0 1-1.025-.073c-.272-.05-.478-.154-.613-.303-.135-.152-.203-.377-.203-.67-.003-.306.056-.54.176-.707.117-.166.302-.283.555-.345.255-.064.584-.094.988-.092h2.64v2.19zM158 52h-5.97c-.697.002-1.293.13-1.787.38-.494.254-.87.611-1.133 1.078-.261.465-.394 1.023-.397 1.669.003.557.106 1.046.311 1.464.203.42.49.756.858 1.01.367.253.8.411 1.295.473L148.618 62h2.721l2.342-3.705h1.855V62H158V52zm-21.363 0v10h2.992l4.955-7.121V62h2.369V52h-3.033l-4.914 7.052V52h-2.37zm-9.382 0h-2.464v10h2.464v-4.229h4.725V62h2.464V52h-2.464v3.72h-4.725V52zm-13.024 0v10h8.732v-2.052h-6.267V57.77h5.577v-2.05h-5.577v-1.667h6.267V52h-8.732zm-14.106 0H97.66v10h14.377V52h-2.464v7.948h-3.493V52h-2.463v7.948h-3.493V52zM87.1 52v10h8.732v-2.052h-6.268V57.77h5.577v-2.05h-5.577v-1.667h6.268V52H87.1zm-8.637 2.052h2.423a6.23 6.23 0 0 1 .943.055c.264.041.478.11.648.211a.92.92 0 0 1 .375.425c.08.184.119.416.119.7 0 .363-.079.646-.241.843-.163.2-.411.337-.743.413-.334.076-.754.112-1.264.108h-2.26v-2.755zM76 62h2.464v-3.14h3.357c.77-.005 1.424-.145 1.96-.425.538-.28.949-.677 1.228-1.194.283-.517.424-1.13.427-1.84-.003-.703-.144-1.31-.427-1.817a2.832 2.832 0 0 0-1.227-1.172c-.537-.272-1.192-.41-1.961-.412H76v10z"/><path fill="#E20714" d="M0 11.654c3.684-3.583 8.052-6.393 12.824-8.316A40.399 40.399 0 0 1 27.914.406c5.21 0 10.334 1.015 15.092 2.932 4.772 1.923 9.14 4.733 12.824 8.316l-6.247 6.076a30.685 30.685 0 0 0-9.925-6.47A31.42 31.42 0 0 0 27.915 9a31.43 31.43 0 0 0-11.744 2.26 30.695 30.695 0 0 0-9.925 6.47L0 11.654z"/><path fill="#FFF" d="M176.866 1a1.622 1.622 0 0 0 .21.682c.072.131.171.254.3.369a1.5 1.5 0 0 0 .485.28c.195.072.432.109.71.112.282-.003.521-.04.72-.111a1.5 1.5 0 0 0 .49-.281c.129-.115.23-.238.302-.369a1.63 1.63 0 0 0 .211-.682h-.74a.587.587 0 0 1-.233.389.84.84 0 0 1-.293.14 1.671 1.671 0 0 1-.457.054 1.428 1.428 0 0 1-.416-.055.855.855 0 0 1-.283-.14.655.655 0 0 1-.249-.388h-.757zm-1.43 1.962v5.884h1.903l3.153-4.19v4.19H182V2.962h-1.93l-3.127 4.15v-4.15h-1.507zm-7.96 0v5.884h1.904l3.153-4.19v4.19h1.508V2.962h-1.93l-3.127 4.15v-4.15h-1.508zm-5.97 0h-1.568v5.884h1.568V6.357h3.007v2.489h1.568V2.962h-1.568V5.15h-3.007V2.962zm-6.624 3.444l.819-1.816.835 1.816h-1.654zm-2.782 2.44h1.688l.56-1.249h2.756l.569 1.249h1.74l-2.85-5.884h-1.5L152.1 8.846zm-6.668-5.884v5.884h1.567V4.169h3.008v4.677h1.567V2.962h-6.142zm-9.51 0v5.884h1.507V4.85l1.861 3.996h1.3l1.94-3.931v3.93h1.506V2.963h-2.007l-2.067 4.214-2.016-4.214h-2.024zm-4.799 1.053c.418.001.779.077 1.078.227.3.148.532.365.694.646.16.28.243.62.244 1.015-.001.394-.083.731-.244 1.012a1.626 1.626 0 0 1-.694.649c-.3.151-.66.227-1.078.228-.417-.001-.777-.077-1.079-.228a1.639 1.639 0 0 1-.698-.649c-.162-.28-.246-.618-.247-1.012.001-.392.085-.73.247-1.011a1.63 1.63 0 0 1 .698-.649c.302-.15.662-.227 1.08-.228zm0-1.208a5.177 5.177 0 0 0-1.556.222c-.46.146-.854.355-1.18.627a2.741 2.741 0 0 0-.748.978 3.032 3.032 0 0 0-.263 1.27c.001.467.09.891.263 1.27.172.379.422.704.748.976.326.273.72.483 1.18.628.46.146.98.22 1.556.222a5.158 5.158 0 0 0 1.555-.222 3.42 3.42 0 0 0 1.178-.628 2.75 2.75 0 0 0 .746-.977c.172-.378.258-.802.26-1.27a3.062 3.062 0 0 0-.26-1.27 2.76 2.76 0 0 0-.746-.977 3.433 3.433 0 0 0-1.178-.627 5.158 5.158 0 0 0-1.555-.222zm-8.838.155h-1.568v5.884h1.568V6.81l.793-.664 2.274 2.699h1.92l-3.092-3.599 2.757-2.285h-2.016l-2.636 2.26v-2.26zm-9.786 3.444l.818-1.816.836 1.816H112.5zm-2.783 2.44h1.689l.56-1.249h2.757l.568 1.249h1.74l-2.851-5.884h-1.5l-2.963 5.884zm-6.667-5.884v5.884h1.568V4.169h3.007v4.677h1.567V2.962h-6.142zm-7.537 0v5.884h1.568V4.169h3.006v4.677h1.568V2.962h-6.142zm-7.547 0l2.972 4.433c-.059.1-.112.18-.16.24a.496.496 0 0 1-.147.135.546.546 0 0 1-.192.059 2.12 2.12 0 0 1-.285.012 1.026 1.026 0 0 1-.213-.027 2.088 2.088 0 0 1-.213-.06 4.173 4.173 0 0 1-.168-.059v1.102a3.317 3.317 0 0 0 .415.094c.09.018.18.032.271.043a2.184 2.184 0 0 0 .753-.035c.153-.037.3-.1.438-.186.137-.085.27-.202.398-.35a3.43 3.43 0 0 0 .378-.554L94.9 2.962h-1.714l-1.534 3.096-1.964-3.096h-1.723zm-4.669 1.207h1.542c.233-.001.433.01.6.033a1.2 1.2 0 0 1 .413.124.558.558 0 0 1 .238.25.949.949 0 0 1 .076.412c0 .213-.05.38-.154.495-.103.118-.261.2-.472.244-.213.044-.48.066-.804.063h-1.439V4.169zm-1.568 4.677h1.568V6.998h2.137c.49-.003.906-.085 1.247-.25.342-.165.603-.399.782-.703.18-.304.27-.664.27-1.082 0-.415-.09-.771-.27-1.07a1.745 1.745 0 0 0-.782-.689c-.341-.16-.758-.241-1.247-.242h-3.705v5.884zM76 2.962v5.884h1.567V4.169h3.205V2.962H76z"/></g></svg>