<svg width="1560" height="1106" xmlns="http://www.w3.org/2000/svg"><path d="M692 990V467h522v174.342H865.996V990H692zm174-699H692V117h174v174zm-637.463 815c-72.813-72.993-129.905-159.505-168.968-254.042C20.61 757.69 0 656.194 0 553c0-103.207 20.61-204.703 59.57-298.958C98.631 159.518 155.723 72.98 228.536 0L352 123.735c-57.144 57.263-101.545 124.224-131.47 196.612C190.5 393.045 174.6 471.993 174.6 553c0 80.994 15.9 159.955 45.928 232.64 29.927 72.4 74.328 139.35 131.472 196.612L228.537 1106zM1331.45 0c72.826 72.98 129.905 159.505 168.98 254.042C1539.379 348.297 1560 449.793 1560 553c0 103.194-20.622 204.69-59.57 298.945-39.075 94.537-96.154 181.062-168.98 254.055L1208 982.252c57.131-57.263 101.532-124.21 131.458-196.612 30.041-72.685 45.928-151.646 45.928-232.64 0-81.007-15.887-159.955-45.928-232.653-29.926-72.401-74.327-139.35-131.458-196.612L1331.45 0z" fill="#E7E8EA" fill-rule="evenodd" opacity=".2"/></svg>