<svg xmlns="http://www.w3.org/2000/svg" width="32" height="44"><path d="M25.737 31.564a1.56 1.56 0 0 0-2.203-.592l-4.346 2.583-1.13-1.5c-1.848-2.452-3.656-5.243-5.32-8.233-1.666-2.979-3.093-5.992-4.216-8.874l-.627-1.608 1.49-.895 2.728-1.641c.841-.504 1.144-1.643.664-2.519L10.912 4.96c-.446-.805-1.422-1.07-2.194-.616L4.643 6.791c-.501.302-.753 2.343-.08 5.6.792 3.827 2.674 8.607 5.312 13.35 5.055 9.059 11.438 15.04 12.878 14.183.11-.075.141-.098.16-.114l.224-.191.268-.123c.052-.023.09-.041.203-.096l.173-.083 3.142-1.882c.853-.52 1.158-1.663.673-2.556l-1.86-3.315zm-4.361-4.123c2.821-1.69 6.439-.719 8.019 2.133l1.86 3.316a6.042 6.042 0 0 1-2.153 8.064l-3.25 1.947-.208.11c-.052.023-.09.041-.203.095-.14.091-.253.168-.417.278-4.757 2.847-12.57-4.476-18.808-15.654C.046 16.636-2.144 6.047 2.471 3.268L6.565.809C9.388-.85 12.995.126 14.57 2.97l1.87 3.333c1.543 2.815.596 6.377-2.16 8.026l-1.213.73a69.295 69.295 0 0 0 3.33 6.772 69.637 69.637 0 0 0 3.907 6.246l1.072-.636z"/></svg>