<svg xmlns="http://www.w3.org/2000/svg" width="77" height="34"><path d="M70.975 7.64c0-.3-.1-.6-.3-.9l-2.2-2.4c-.4-.4-.9-.5-1.4-.3l-21.3 10.3v-1c0-2.6-2.2-4.8-4.8-4.8h-10.2v-4.5h6.2c.7 0 1.2-.5 1.2-1.2s-.5-1.2-1.2-1.2h-14.8c-.7 0-1.2.5-1.2 1.2s.5 1.2 1.2 1.2h6.2v4.5h-8.5l-.1-.1-11.9-8.2c-.3-.2-.7-.3-1-.2-.3.1-.6.3-.8.7l-6 13.5c-.1.3-.1.7 0 1 .2.3.4.6.8.6l12.6 3.3v9.7c0 2.6 2.2 4.8 4.8 4.8h22.8c1.1 0 2.2-.4 3.1-1.2 0 0 .1 0 .1-.1l26.3-24c.2-.1.4-.4.4-.7zm-68.2 6.3l4.9-10.9 8.5 5.9c-1.7.8-2.8 2.4-2.8 4.4v3.4l-10.6-2.8zm39.9 16.7c-.5.4-1.1.7-1.7.7h-22.8c-1.3 0-2.4-1.1-2.4-2.4v-15.7c0-1.3 1.1-2.4 2.4-2.4h22.8c1.3 0 2.4 1.1 2.4 2.4v3c0 .4.2.8.6 1 .4.2.8.2 1.2.1l22.1-10.7.8.9-25.4 23.1zm32.8-8.9l-4.8-8.7c-.2-.4-.6-.6-1.1-.6-.5 0-.8.2-1.1.6l-4.8 8.7c-.5.9-.8 2-.8 3.1 0 3.6 3 6.6 6.6 6.6 3.6 0 6.6-3 6.6-6.6.1-1.1-.1-2.2-.6-3.1zm-5.9 7.3c-2.3 0-4.2-1.9-4.2-4.2 0-.7.2-1.4.5-2l3.7-6.8 3.7 6.7c.3.6.5 1.3.5 2 0 2.4-1.8 4.3-4.2 4.3z"/></svg>