<?xml version="1.0" encoding="UTF-8"?>
<svg width="22px" height="16px" viewBox="0 0 22 16" version="1.1" xmlns="http://www.w3.org/2000/svg" xmlns:xlink="http://www.w3.org/1999/xlink">
    <!-- Generator: Sketch 63.1 (92452) - https://sketch.com -->
    <title>open</title>
    <desc>Created with Sketch.</desc>
    <g id="База" stroke="none" stroke-width="1" fill="none" fill-rule="evenodd">
        <g id="пиктограммы" transform="translate(-1508.000000, -1648.000000)" fill="#FFFFFF" fill-rule="nonzero">
            <path d="M1519.00016,1648.97147 C1523.63896,1648.97147 1527.67866,1651.53561 1529.78192,1655.32512 C1530.07269,1655.84877 1530.07269,1656.48475 1529.78192,1657.0084 C1527.67861,1660.79777 1523.63852,1663.36205 1519.00016,1663.36205 C1514.36135,1663.36205 1510.32122,1660.79791 1508.21795,1657.0084 C1507.92735,1656.48475 1507.92735,1655.84877 1508.21795,1655.32512 C1510.32144,1651.53575 1514.36135,1648.97147 1519.00016,1648.97147 Z M1519.0261,1651.04205 C1516.19564,1651.04205 1513.90118,1653.33642 1513.90118,1656.16676 C1513.90118,1658.9971 1516.19573,1661.29147 1519.0261,1661.29147 C1521.85612,1661.29147 1524.15059,1658.99701 1524.15059,1656.16676 C1524.15059,1653.33642 1521.8563,1651.04205 1519.0261,1651.04205 Z M1519,1653.11264 C1520.70104,1653.11264 1522.08,1654.4916 1522.08,1656.19264 C1522.08,1657.89368 1520.70104,1659.27264 1519,1659.27264 C1517.29896,1659.27264 1515.92,1657.89368 1515.92,1656.19264 C1515.92,1654.4916 1517.29896,1653.11264 1519,1653.11264 Z" id="open"></path>
        </g>
    </g>
</svg>