<svg width="569" height="403" xmlns="http://www.w3.org/2000/svg"><path d="M253 361V170h190v63.67H316.332V361H253zm64-255h-64V42h64v64zM83.104 403c-26.477-26.597-47.238-58.12-61.442-92.567C7.494 276.084 0 239.101 0 201.5c0-37.606 7.494-74.589 21.662-108.933C35.866 58.124 56.627 26.592 83.104 0L128 45.086c-20.78 20.865-36.925 45.264-47.808 71.641-10.919 26.49-16.7 55.256-16.7 84.773 0 29.512 5.781 58.284 16.7 84.768C91.075 312.65 107.22 337.044 128 357.91L83.104 403zM485.891 0c26.482 26.592 47.238 58.12 61.447 92.567C561.501 126.911 569 163.894 569 201.5c0 37.601-7.499 74.584-21.662 108.928-14.209 34.448-34.965 65.975-61.447 92.572L441 357.91c20.775-20.866 36.92-45.26 47.803-71.642 10.924-26.484 16.701-55.256 16.701-84.768 0-29.517-5.777-58.284-16.701-84.773C477.92 90.346 461.775 65.951 441 45.087L485.891 0z" fill="#F1F1F1" fill-rule="evenodd"/></svg>