<svg width="418" height="590" xmlns="http://www.w3.org/2000/svg"><path d="M44 262h198v197h-66.003V327.665H44V262zm264 66v-66h66v66h-66zM0 86.35c27.587-27.51 60.283-49.082 96.012-63.841C131.64 7.787 170 0 209 0c39.006 0 77.365 7.787 112.988 22.508 35.724 14.76 68.43 36.331 96.012 63.843L371.236 133c-21.642-21.591-46.95-38.368-74.308-49.675C269.453 71.979 239.615 65.971 209 65.971c-30.61 0-60.453 6.008-87.924 17.354C93.713 94.632 68.411 111.409 46.77 133L0 86.35zm418 417.295c-27.582 27.516-60.283 49.083-96.012 63.847C286.365 582.208 248.006 590 209 590c-39.001 0-77.36-7.792-112.983-22.508-35.73-14.764-68.43-36.331-96.017-63.847L46.77 457c21.64 21.586 46.943 38.363 74.306 49.67 27.47 11.351 57.313 17.354 87.924 17.354 30.615 0 60.453-6.003 87.928-17.354 27.364-11.307 52.666-28.084 74.308-49.67L418 503.645z" fill="#A2A2A2" fill-rule="evenodd" opacity=".1"/></svg>