<?xml version="1.0" encoding="UTF-8"?>
<svg width="94px" height="131px" viewBox="0 0 94 131" version="1.1" xmlns="http://www.w3.org/2000/svg" xmlns:xlink="http://www.w3.org/1999/xlink">
    <!-- Generator: Sketch 63.1 (92452) - https://sketch.com -->
    <title>Group</title>
    <desc>Created with Sketch.</desc>
    <g id="1920" stroke="none" stroke-width="1" fill="none" fill-rule="evenodd">
        <g id="1-лоадер-шелл" transform="translate(-913.000000, -435.000000)">
            <g id="Group" transform="translate(913.000000, 435.000000)">
                <path d="M94,112.170973 C87.7967379,118.170317 80.4431749,122.874005 72.4082861,126.092527 C64.397174,129.301534 55.771147,131 47,131 C38.228853,131 29.602826,129.301534 21.5917139,126.092527 C13.5568251,122.874005 6.2032621,118.170317 0,112.170973 L10.5166856,102 C15.3835325,106.707653 21.0735456,110.366254 27.2276145,112.830695 C33.4046402,115.305444 40.1154121,116.614579 47,116.614579 C53.883768,116.614579 60.5953598,115.305444 66.7723855,112.830695 C72.9256345,110.366254 78.6164675,106.707653 83.4833144,102 L94,112.170973 Z" id="Fill-10" fill="#575756"></path>
                <path d="M0,18.8290269 C6.2032621,12.8296831 13.5568251,8.12678752 21.5917139,4.90747273 C29.602826,1.69846608 38.228853,0 47,0 C55.771147,0 64.397174,1.69846608 72.4082861,4.90747273 C80.4439948,8.12678752 87.7967379,12.8296831 94,18.8290269 L83.4833144,29 C78.6164675,24.2931397 72.9264544,20.6345391 66.7723855,18.1693052 C60.5953598,15.6945561 53.8845879,14.3854209 47,14.3854209 C40.116232,14.3854209 33.4046402,15.6945561 27.2276145,18.1693052 C21.0743655,20.6345391 15.3843524,24.2931397 10.5166856,29 L0,18.8290269 Z" id="Fill-7" fill="#E20714"></path>
            </g>
        </g>
    </g>
</svg>